G04 #@! TF.GenerationSoftware,KiCad,Pcbnew,9.0.5*
G04 #@! TF.CreationDate,2025-12-19T11:09:57+01:00*
G04 #@! TF.ProjectId,eload-pwr,656c6f61-642d-4707-9772-2e6b69636164,rev?*
G04 #@! TF.SameCoordinates,Original*
G04 #@! TF.FileFunction,Soldermask,Top*
G04 #@! TF.FilePolarity,Negative*
%FSLAX46Y46*%
G04 Gerber Fmt 4.6, Leading zero omitted, Abs format (unit mm)*
G04 Created by KiCad (PCBNEW 9.0.5) date 2025-12-19 11:09:57*
%MOMM*%
%LPD*%
G01*
G04 APERTURE LIST*
G04 Aperture macros list*
%AMRoundRect*
0 Rectangle with rounded corners*
0 $1 Rounding radius*
0 $2 $3 $4 $5 $6 $7 $8 $9 X,Y pos of 4 corners*
0 Add a 4 corners polygon primitive as box body*
4,1,4,$2,$3,$4,$5,$6,$7,$8,$9,$2,$3,0*
0 Add four circle primitives for the rounded corners*
1,1,$1+$1,$2,$3*
1,1,$1+$1,$4,$5*
1,1,$1+$1,$6,$7*
1,1,$1+$1,$8,$9*
0 Add four rect primitives between the rounded corners*
20,1,$1+$1,$2,$3,$4,$5,0*
20,1,$1+$1,$4,$5,$6,$7,0*
20,1,$1+$1,$6,$7,$8,$9,0*
20,1,$1+$1,$8,$9,$2,$3,0*%
G04 Aperture macros list end*
%ADD10RoundRect,0.225000X0.225000X0.250000X-0.225000X0.250000X-0.225000X-0.250000X0.225000X-0.250000X0*%
%ADD11RoundRect,0.200000X0.200000X0.275000X-0.200000X0.275000X-0.200000X-0.275000X0.200000X-0.275000X0*%
%ADD12R,1.450000X0.450000*%
%ADD13RoundRect,0.250000X-0.450000X0.262500X-0.450000X-0.262500X0.450000X-0.262500X0.450000X0.262500X0*%
%ADD14RoundRect,0.225000X-0.250000X0.225000X-0.250000X-0.225000X0.250000X-0.225000X0.250000X0.225000X0*%
%ADD15C,4.300000*%
%ADD16RoundRect,0.225000X0.250000X-0.225000X0.250000X0.225000X-0.250000X0.225000X-0.250000X-0.225000X0*%
%ADD17RoundRect,0.100000X0.100000X-0.225000X0.100000X0.225000X-0.100000X0.225000X-0.100000X-0.225000X0*%
%ADD18RoundRect,0.200000X-0.200000X-0.275000X0.200000X-0.275000X0.200000X0.275000X-0.200000X0.275000X0*%
%ADD19RoundRect,0.200000X-0.275000X0.200000X-0.275000X-0.200000X0.275000X-0.200000X0.275000X0.200000X0*%
%ADD20R,4.245000X3.810000*%
%ADD21RoundRect,0.150000X0.512500X0.150000X-0.512500X0.150000X-0.512500X-0.150000X0.512500X-0.150000X0*%
%ADD22RoundRect,0.250000X0.900000X-1.000000X0.900000X1.000000X-0.900000X1.000000X-0.900000X-1.000000X0*%
%ADD23RoundRect,0.200000X0.275000X-0.200000X0.275000X0.200000X-0.275000X0.200000X-0.275000X-0.200000X0*%
%ADD24RoundRect,0.250000X-0.475000X0.250000X-0.475000X-0.250000X0.475000X-0.250000X0.475000X0.250000X0*%
%ADD25RoundRect,0.225000X-0.225000X-0.250000X0.225000X-0.250000X0.225000X0.250000X-0.225000X0.250000X0*%
%ADD26RoundRect,0.250000X0.450000X-0.262500X0.450000X0.262500X-0.450000X0.262500X-0.450000X-0.262500X0*%
%ADD27RoundRect,0.150000X-0.150000X0.512500X-0.150000X-0.512500X0.150000X-0.512500X0.150000X0.512500X0*%
%ADD28RoundRect,0.250000X0.262500X0.450000X-0.262500X0.450000X-0.262500X-0.450000X0.262500X-0.450000X0*%
%ADD29RoundRect,0.250000X0.650000X-0.325000X0.650000X0.325000X-0.650000X0.325000X-0.650000X-0.325000X0*%
%ADD30R,2.760000X0.650000*%
%ADD31RoundRect,0.250000X-0.262500X-0.450000X0.262500X-0.450000X0.262500X0.450000X-0.262500X0.450000X0*%
%ADD32R,2.600000X2.600000*%
%ADD33C,2.600000*%
%ADD34RoundRect,0.675000X-0.675000X-2.425000X0.675000X-2.425000X0.675000X2.425000X-0.675000X2.425000X0*%
%ADD35RoundRect,0.250000X-0.250000X-0.475000X0.250000X-0.475000X0.250000X0.475000X-0.250000X0.475000X0*%
%ADD36R,1.760000X8.600000*%
%ADD37R,5.500000X6.800000*%
%ADD38R,1.400000X1.200000*%
%ADD39C,3.200000*%
%ADD40RoundRect,0.250000X0.600000X-0.400000X0.600000X0.400000X-0.600000X0.400000X-0.600000X-0.400000X0*%
%ADD41RoundRect,0.150000X0.150000X-0.512500X0.150000X0.512500X-0.150000X0.512500X-0.150000X-0.512500X0*%
%ADD42RoundRect,0.100000X-0.100000X0.225000X-0.100000X-0.225000X0.100000X-0.225000X0.100000X0.225000X0*%
%ADD43RoundRect,0.675000X0.675000X2.425000X-0.675000X2.425000X-0.675000X-2.425000X0.675000X-2.425000X0*%
%ADD44RoundRect,0.125000X-0.625000X-0.125000X0.625000X-0.125000X0.625000X0.125000X-0.625000X0.125000X0*%
%ADD45RoundRect,0.125000X-0.125000X-0.625000X0.125000X-0.625000X0.125000X0.625000X-0.125000X0.625000X0*%
%ADD46RoundRect,0.150000X-0.150000X0.587500X-0.150000X-0.587500X0.150000X-0.587500X0.150000X0.587500X0*%
%ADD47RoundRect,0.150000X0.150000X-0.587500X0.150000X0.587500X-0.150000X0.587500X-0.150000X-0.587500X0*%
%ADD48RoundRect,0.150000X-0.512500X-0.150000X0.512500X-0.150000X0.512500X0.150000X-0.512500X0.150000X0*%
%ADD49C,1.100000*%
%ADD50R,2.030000X1.730000*%
%ADD51O,2.030000X1.730000*%
%ADD52RoundRect,0.250000X1.000000X-1.500000X1.000000X1.500000X-1.000000X1.500000X-1.000000X-1.500000X0*%
%ADD53RoundRect,0.250000X0.475000X-0.250000X0.475000X0.250000X-0.475000X0.250000X-0.475000X-0.250000X0*%
%ADD54RoundRect,0.375000X-0.625000X-0.375000X0.625000X-0.375000X0.625000X0.375000X-0.625000X0.375000X0*%
%ADD55RoundRect,0.500000X-0.500000X-1.400000X0.500000X-1.400000X0.500000X1.400000X-0.500000X1.400000X0*%
%ADD56RoundRect,0.250000X-0.625000X0.375000X-0.625000X-0.375000X0.625000X-0.375000X0.625000X0.375000X0*%
%ADD57RoundRect,0.050000X-0.285000X-0.100000X0.285000X-0.100000X0.285000X0.100000X-0.285000X0.100000X0*%
%ADD58C,0.650000*%
%ADD59RoundRect,0.150000X0.150000X0.425000X-0.150000X0.425000X-0.150000X-0.425000X0.150000X-0.425000X0*%
%ADD60RoundRect,0.075000X0.075000X0.500000X-0.075000X0.500000X-0.075000X-0.500000X0.075000X-0.500000X0*%
%ADD61O,1.000000X2.100000*%
%ADD62O,1.000000X1.800000*%
%ADD63RoundRect,0.250000X-0.600000X0.400000X-0.600000X-0.400000X0.600000X-0.400000X0.600000X0.400000X0*%
%ADD64R,0.900000X1.000000*%
%ADD65RoundRect,0.250000X-0.650000X0.325000X-0.650000X-0.325000X0.650000X-0.325000X0.650000X0.325000X0*%
%ADD66C,3.600000*%
G04 APERTURE END LIST*
D10*
X-30033201Y-141956901D03*
X-31583201Y-141956901D03*
D11*
X-40300000Y-141100000D03*
X-41950000Y-141100000D03*
D12*
X-80933200Y-100719400D03*
X-80933200Y-100069400D03*
X-80933200Y-99419400D03*
X-80933200Y-98769400D03*
X-85333200Y-98769400D03*
X-85333200Y-99419400D03*
X-85333200Y-100069400D03*
X-85333200Y-100719400D03*
D13*
X-55712500Y-42700000D03*
X-55712500Y-44525000D03*
D14*
X-36283200Y-116819400D03*
X-36283200Y-118369400D03*
D13*
X-66512500Y-35287500D03*
X-66512500Y-37112500D03*
D15*
X-18300000Y-161000000D03*
D10*
X-30158201Y-113006900D03*
X-31708201Y-113006900D03*
D16*
X-83408200Y-92069400D03*
X-83408200Y-90519400D03*
D17*
X-34370699Y-151081901D03*
X-33720699Y-151081901D03*
X-33070699Y-151081901D03*
X-33070699Y-149181901D03*
X-33720699Y-149181901D03*
X-34370699Y-149181901D03*
D16*
X-26495700Y-120569399D03*
X-26495700Y-119019399D03*
D10*
X-32895699Y-147781901D03*
X-34445699Y-147781901D03*
D18*
X-37758199Y-151794401D03*
X-36108199Y-151794401D03*
D19*
X-27733200Y-114019400D03*
X-27733200Y-115669400D03*
D10*
X-33083200Y-141956902D03*
X-34633200Y-141956902D03*
D20*
X-28350000Y-57300000D03*
X-21975000Y-57300000D03*
D21*
X-85110700Y-120964400D03*
X-85110700Y-120014400D03*
X-85110700Y-119064400D03*
X-87385700Y-119064400D03*
X-87385700Y-120964400D03*
D18*
X-73825000Y-103400000D03*
X-72175000Y-103400000D03*
D11*
X-37733200Y-114394401D03*
X-39383200Y-114394401D03*
D16*
X-31495700Y-121169400D03*
X-31495700Y-119619400D03*
D19*
X-75448200Y-122689400D03*
X-75448200Y-124339400D03*
D12*
X-80973200Y-129439400D03*
X-80973200Y-128789400D03*
X-80973200Y-128139400D03*
X-80973200Y-127489400D03*
X-85373200Y-127489400D03*
X-85373200Y-128139400D03*
X-85373200Y-128789400D03*
X-85373200Y-129439400D03*
D22*
X-30762500Y-53050000D03*
X-30762500Y-48750000D03*
D14*
X-36158200Y-145769401D03*
X-36158200Y-147319401D03*
D23*
X-39583199Y-150319401D03*
X-39583199Y-148669401D03*
D18*
X-26320700Y-115631899D03*
X-24670700Y-115631899D03*
D24*
X-59612500Y-47550000D03*
X-59612500Y-49450000D03*
D25*
X-81948200Y-131051900D03*
X-80398200Y-131051900D03*
D26*
X-46100000Y-52212500D03*
X-46100000Y-50387500D03*
D27*
X-27920700Y-148044401D03*
X-28870700Y-148044401D03*
X-29820700Y-148044401D03*
X-29820700Y-150319401D03*
X-28870700Y-150319401D03*
X-27920700Y-150319401D03*
D11*
X-77273200Y-121214400D03*
X-78923200Y-121214400D03*
D24*
X-50300000Y-50400000D03*
X-50300000Y-52300000D03*
D17*
X-34495699Y-122131900D03*
X-33845699Y-122131900D03*
X-33195699Y-122131900D03*
X-33195699Y-120231900D03*
X-33845699Y-120231900D03*
X-34495699Y-120231900D03*
D18*
X-78948200Y-124214400D03*
X-77298200Y-124214400D03*
D23*
X-41133200Y-150319401D03*
X-41133200Y-148669401D03*
D19*
X-77373200Y-125639400D03*
X-77373200Y-127289400D03*
D28*
X-65537500Y-49600000D03*
X-67362500Y-49600000D03*
D19*
X-75408200Y-93969400D03*
X-75408200Y-95619400D03*
D13*
X-71812500Y-55575000D03*
X-71812500Y-57400000D03*
D18*
X-77383200Y-100944400D03*
X-75733200Y-100944400D03*
D14*
X-83660700Y-122889400D03*
X-83660700Y-124439400D03*
D26*
X-90512500Y-43312500D03*
X-90512500Y-41487500D03*
X-55112500Y-55712500D03*
X-55112500Y-53887500D03*
D29*
X-92962500Y-54175000D03*
X-92962500Y-51225000D03*
D30*
X-49092500Y-42340000D03*
X-53132500Y-42340000D03*
X-49092500Y-41070000D03*
X-53132500Y-41070000D03*
X-49092500Y-39800000D03*
X-53132500Y-39800000D03*
X-49092500Y-38530000D03*
X-53132500Y-38530000D03*
X-49092500Y-37260000D03*
X-53132500Y-37260000D03*
D23*
X-87423200Y-130039400D03*
X-87423200Y-128389400D03*
D31*
X-94125000Y-41600000D03*
X-92300000Y-41600000D03*
D25*
X-81908200Y-102331900D03*
X-80358200Y-102331900D03*
D29*
X-95562500Y-54175000D03*
X-95562500Y-51225000D03*
D16*
X-26370700Y-149519400D03*
X-26370700Y-147969400D03*
D32*
X-21512500Y-45800000D03*
D33*
X-21512500Y-39800000D03*
X-26212500Y-42800000D03*
D10*
X-33208200Y-113006901D03*
X-34758200Y-113006901D03*
D34*
X-29008200Y-107694400D03*
X-20708200Y-107694400D03*
D35*
X-43712500Y-42950000D03*
X-41812500Y-42950000D03*
D36*
X-51021000Y-107666667D03*
D37*
X-49151000Y-107666667D03*
D38*
X-43801000Y-110666667D03*
X-43801000Y-108666667D03*
X-43801000Y-106666667D03*
X-43801000Y-104666667D03*
D23*
X-36158200Y-143919402D03*
X-36158200Y-142269402D03*
D39*
X-53435000Y-196870000D03*
X-49000000Y-196870000D03*
X-44565000Y-196870000D03*
X-53435000Y-192435000D03*
X-49000000Y-192435000D03*
X-44565000Y-192435000D03*
X-53435000Y-188000000D03*
X-49000000Y-188000000D03*
X-44565000Y-188000000D03*
D40*
X-71812500Y-53837500D03*
X-71812500Y-50337500D03*
D41*
X-87070700Y-96244400D03*
X-86120700Y-96244400D03*
X-85170700Y-96244400D03*
X-85170700Y-93969400D03*
X-86120700Y-93969400D03*
X-87070700Y-93969400D03*
D21*
X-85070700Y-92244400D03*
X-85070700Y-91294400D03*
X-85070700Y-90344400D03*
X-87345700Y-90344400D03*
X-87345700Y-92244400D03*
D28*
X-85000000Y-41700000D03*
X-86825000Y-41700000D03*
D40*
X-69412500Y-53837500D03*
X-69412500Y-50337500D03*
D17*
X-43412500Y-41300000D03*
X-42762500Y-41300000D03*
X-42112500Y-41300000D03*
X-42112500Y-39400000D03*
X-42762500Y-39400000D03*
X-43412500Y-39400000D03*
D42*
X-80660700Y-121926900D03*
X-81310700Y-121926900D03*
X-81960700Y-121926900D03*
X-81960700Y-123826900D03*
X-81310700Y-123826900D03*
X-80660700Y-123826900D03*
D11*
X-36208199Y-119844400D03*
X-37858199Y-119844400D03*
D26*
X-55712500Y-41125000D03*
X-55712500Y-39300000D03*
D12*
X-34183200Y-114619400D03*
X-34183200Y-115269400D03*
X-34183200Y-115919400D03*
X-34183200Y-116569400D03*
X-29783200Y-116569400D03*
X-29783200Y-115919400D03*
X-29783200Y-115269400D03*
X-29783200Y-114619400D03*
D27*
X-28045700Y-119094400D03*
X-28995700Y-119094400D03*
X-29945700Y-119094400D03*
X-29945700Y-121369400D03*
X-28995700Y-121369400D03*
X-28045700Y-121369400D03*
D43*
X-86158200Y-107694400D03*
X-94458200Y-107694400D03*
D23*
X-38560235Y-112925000D03*
X-38560235Y-111275000D03*
D41*
X-87110700Y-124964400D03*
X-86160700Y-124964400D03*
X-85210700Y-124964400D03*
X-85210700Y-122689400D03*
X-86160700Y-122689400D03*
X-87110700Y-122689400D03*
D26*
X-61300000Y-54312500D03*
X-61300000Y-52487500D03*
D42*
X-80620700Y-93206900D03*
X-81270700Y-93206900D03*
X-81920700Y-93206900D03*
X-81920700Y-95106900D03*
X-81270700Y-95106900D03*
X-80620700Y-95106900D03*
D44*
X-68612500Y-40600000D03*
X-68612500Y-41400000D03*
X-68612500Y-42200000D03*
X-68612500Y-43000000D03*
X-68612500Y-43800000D03*
X-68612500Y-44600000D03*
X-68612500Y-45400000D03*
X-68612500Y-46200000D03*
D45*
X-67237500Y-47575000D03*
X-66437500Y-47575000D03*
X-65637500Y-47575000D03*
X-64837500Y-47575000D03*
X-64037500Y-47575000D03*
X-63237500Y-47575000D03*
X-62437500Y-47575000D03*
X-61637500Y-47575000D03*
D44*
X-60262500Y-46200000D03*
X-60262500Y-45400000D03*
X-60262500Y-44600000D03*
X-60262500Y-43800000D03*
X-60262500Y-43000000D03*
X-60262500Y-42200000D03*
X-60262500Y-41400000D03*
X-60262500Y-40600000D03*
D45*
X-61637500Y-39225000D03*
X-62437500Y-39225000D03*
X-63237500Y-39225000D03*
X-64037500Y-39225000D03*
X-64837500Y-39225000D03*
X-65637500Y-39225000D03*
X-66437500Y-39225000D03*
X-67237500Y-39225000D03*
D19*
X-78873200Y-129089400D03*
X-78873200Y-130739400D03*
D18*
X-37883199Y-121344400D03*
X-36233199Y-121344400D03*
D11*
X-88835700Y-128426900D03*
X-90485700Y-128426900D03*
X-37608200Y-143344402D03*
X-39258200Y-143344402D03*
D46*
X-73948200Y-126026900D03*
X-75848200Y-126026900D03*
X-74898200Y-127901900D03*
D47*
X-41208200Y-118031900D03*
X-39308200Y-118031900D03*
X-40258200Y-116156900D03*
D18*
X-78908200Y-95494400D03*
X-77258200Y-95494400D03*
D48*
X-29920700Y-152044401D03*
X-29920700Y-152994401D03*
X-29920700Y-153944401D03*
X-27645700Y-153944401D03*
X-27645700Y-152044401D03*
D16*
X-83448200Y-120789400D03*
X-83448200Y-119239400D03*
D23*
X-37783200Y-118419400D03*
X-37783200Y-116769400D03*
D18*
X-77423200Y-129664400D03*
X-75773200Y-129664400D03*
D15*
X-18300000Y-83000000D03*
D36*
X-63631000Y-107666667D03*
D37*
X-65501000Y-107666667D03*
D38*
X-70851000Y-104666667D03*
X-70851000Y-106666667D03*
X-70851000Y-108666667D03*
X-70851000Y-110666667D03*
D49*
X-39672500Y-39020000D03*
D50*
X-37512500Y-44100000D03*
D51*
X-37512500Y-41560000D03*
X-37512500Y-39020000D03*
X-37512500Y-36480000D03*
D52*
X-37562500Y-54707500D03*
X-37562500Y-48207500D03*
D10*
X-84733200Y-88794400D03*
X-86283200Y-88794400D03*
D16*
X-78833200Y-98519400D03*
X-78833200Y-96969400D03*
D14*
X-88620700Y-94769400D03*
X-88620700Y-96319400D03*
D25*
X-30383200Y-126544400D03*
X-28833200Y-126544400D03*
D53*
X-70712500Y-43750000D03*
X-70712500Y-41850000D03*
D18*
X-26195700Y-144581900D03*
X-24545700Y-144581900D03*
D10*
X-84773200Y-117514400D03*
X-86323200Y-117514400D03*
D54*
X-90412500Y-51600000D03*
X-90412500Y-53900000D03*
D55*
X-84112500Y-53900000D03*
D54*
X-90412500Y-56200000D03*
D29*
X-74912500Y-44175000D03*
X-74912500Y-41225000D03*
D56*
X-55112500Y-49300000D03*
X-55112500Y-52100000D03*
D57*
X-58390000Y-96043284D03*
X-58390000Y-96543284D03*
X-58390000Y-97043284D03*
X-56910000Y-97043284D03*
X-56910000Y-96543284D03*
X-56910000Y-96043284D03*
D25*
X-84998200Y-131051900D03*
X-83448200Y-131051900D03*
D43*
X-85658200Y-136194400D03*
X-93958200Y-136194400D03*
D34*
X-28958200Y-136194400D03*
X-20658200Y-136194400D03*
D19*
X-77333200Y-96919400D03*
X-77333200Y-98569400D03*
D10*
X-56625000Y-94600000D03*
X-58175000Y-94600000D03*
D39*
X-32435000Y-196870000D03*
X-28000000Y-196870000D03*
X-23565000Y-196870000D03*
X-32435000Y-192435000D03*
X-28000000Y-192435000D03*
X-23565000Y-192435000D03*
X-32435000Y-188000000D03*
X-28000000Y-188000000D03*
X-23565000Y-188000000D03*
D19*
X-73858200Y-93969400D03*
X-73858200Y-95619400D03*
D25*
X-82135700Y-125226900D03*
X-80585700Y-125226900D03*
D36*
X-51021000Y-136333333D03*
D37*
X-49151000Y-136333333D03*
D38*
X-43801000Y-139333333D03*
X-43801000Y-137333333D03*
X-43801000Y-135333333D03*
X-43801000Y-133333333D03*
D23*
X-36283200Y-114969401D03*
X-36283200Y-113319401D03*
D25*
X-30258200Y-155494401D03*
X-28708200Y-155494401D03*
D40*
X-74312500Y-53850000D03*
X-74312500Y-50350000D03*
D25*
X-82095700Y-96506900D03*
X-80545700Y-96506900D03*
D26*
X-48300000Y-52212500D03*
X-48300000Y-50387500D03*
D23*
X-41258200Y-121369400D03*
X-41258200Y-119719400D03*
D47*
X-41083200Y-146981901D03*
X-39183200Y-146981901D03*
X-40133200Y-145106901D03*
D26*
X-88612500Y-43312500D03*
X-88612500Y-41487500D03*
D13*
X-45412500Y-43887500D03*
X-45412500Y-45712500D03*
D39*
X-70470000Y-196870000D03*
X-66035000Y-196870000D03*
X-61600000Y-196870000D03*
X-70470000Y-192435000D03*
X-66035000Y-192435000D03*
X-61600000Y-192435000D03*
X-70470000Y-188000000D03*
X-66035000Y-188000000D03*
X-61600000Y-188000000D03*
D11*
X-77233200Y-92494400D03*
X-78883200Y-92494400D03*
X-40675000Y-112100000D03*
X-42325000Y-112100000D03*
D58*
X-86722500Y-38215000D03*
X-92502500Y-38215000D03*
D59*
X-86412500Y-39290000D03*
X-87212500Y-39290000D03*
D60*
X-88362500Y-39290000D03*
X-89362500Y-39290000D03*
X-89862500Y-39290000D03*
X-90862500Y-39290000D03*
D59*
X-92012500Y-39290000D03*
X-92812500Y-39290000D03*
X-92812500Y-39290000D03*
X-92012500Y-39290000D03*
D60*
X-91362500Y-39290000D03*
X-90362500Y-39290000D03*
X-88862500Y-39290000D03*
X-87862500Y-39290000D03*
D59*
X-87212500Y-39290000D03*
X-86412500Y-39290000D03*
D61*
X-85292500Y-38715000D03*
D62*
X-85292500Y-34535000D03*
D61*
X-93932500Y-38715000D03*
D62*
X-93932500Y-34535000D03*
D19*
X-27608200Y-142969401D03*
X-27608200Y-144619401D03*
D63*
X-52600000Y-49650000D03*
X-52600000Y-53150000D03*
D64*
X-75462500Y-34800000D03*
X-71362500Y-34800000D03*
X-75462500Y-36400000D03*
X-71362500Y-36400000D03*
D23*
X-38435235Y-141425000D03*
X-38435235Y-139775000D03*
D14*
X-31583200Y-152219401D03*
X-31583200Y-153769401D03*
D65*
X-32312500Y-41525000D03*
X-32312500Y-44475000D03*
D14*
X-88660700Y-123489400D03*
X-88660700Y-125039400D03*
D23*
X-39708199Y-121369400D03*
X-39708199Y-119719400D03*
D19*
X-73898200Y-122689400D03*
X-73898200Y-124339400D03*
X-76556165Y-102575000D03*
X-76556165Y-104225000D03*
D39*
X-91470000Y-196870000D03*
X-87035000Y-196870000D03*
X-82600000Y-196870000D03*
X-91470000Y-192435000D03*
X-87035000Y-192435000D03*
X-82600000Y-192435000D03*
X-91470000Y-188000000D03*
X-87035000Y-188000000D03*
X-82600000Y-188000000D03*
D13*
X-74212500Y-55587500D03*
X-74212500Y-57412500D03*
D14*
X-31708200Y-123269400D03*
X-31708200Y-124819400D03*
D36*
X-63631000Y-136333333D03*
D37*
X-65501000Y-136333333D03*
D38*
X-70851000Y-133333333D03*
X-70851000Y-135333333D03*
X-70851000Y-137333333D03*
X-70851000Y-139333333D03*
D48*
X-30045700Y-123094400D03*
X-30045700Y-124044400D03*
X-30045700Y-124994400D03*
X-27770700Y-124994400D03*
X-27770700Y-123094400D03*
D11*
X-77233200Y-93994400D03*
X-78883200Y-93994400D03*
D46*
X-73908200Y-97306900D03*
X-75808200Y-97306900D03*
X-74858200Y-99181900D03*
D23*
X-87383200Y-101319400D03*
X-87383200Y-99669400D03*
D28*
X-76900000Y-44300000D03*
X-78725000Y-44300000D03*
D12*
X-34058200Y-143569401D03*
X-34058200Y-144219401D03*
X-34058200Y-144869401D03*
X-34058200Y-145519401D03*
X-29658200Y-145519401D03*
X-29658200Y-144869401D03*
X-29658200Y-144219401D03*
X-29658200Y-143569401D03*
D26*
X-58200000Y-55312500D03*
X-58200000Y-53487500D03*
D11*
X-77273200Y-122714400D03*
X-78923200Y-122714400D03*
D16*
X-31370700Y-150119401D03*
X-31370700Y-148569401D03*
X-78873200Y-127239400D03*
X-78873200Y-125689400D03*
D10*
X-33020699Y-118831900D03*
X-34570699Y-118831900D03*
D18*
X-74125000Y-131700000D03*
X-72475000Y-131700000D03*
D15*
X-96300000Y-83000000D03*
D14*
X-83620700Y-94169400D03*
X-83620700Y-95719400D03*
D19*
X-76600000Y-131075000D03*
X-76600000Y-132725000D03*
D13*
X-76712500Y-55587500D03*
X-76712500Y-57412500D03*
D25*
X-84958200Y-102331900D03*
X-83408200Y-102331900D03*
D53*
X-69212500Y-39200000D03*
X-69212500Y-37300000D03*
D35*
X-43712500Y-37750000D03*
X-41812500Y-37750000D03*
D53*
X-72737500Y-43750000D03*
X-72737500Y-41850000D03*
D19*
X-78833200Y-100369400D03*
X-78833200Y-102019400D03*
D13*
X-69612500Y-55575000D03*
X-69612500Y-57400000D03*
D11*
X-88795700Y-99706900D03*
X-90445700Y-99706900D03*
D15*
X-96300000Y-161000000D03*
D66*
X-24800000Y-69500000D03*
X-34300000Y-174500000D03*
X-80500000Y-174500000D03*
X-90000000Y-69500000D03*
D40*
X-76712500Y-53850000D03*
X-76712500Y-50350000D03*
D18*
X-37883199Y-122844400D03*
X-36233199Y-122844400D03*
X-37758199Y-150294401D03*
X-36108199Y-150294401D03*
D23*
X-37658200Y-147369401D03*
X-37658200Y-145719401D03*
D11*
X-36083199Y-148794401D03*
X-37733199Y-148794401D03*
G36*
X-71688021Y-132752382D02*
G01*
X-71628520Y-132764217D01*
X-71583820Y-132782732D01*
X-71543731Y-132809518D01*
X-71509518Y-132843731D01*
X-71482732Y-132883820D01*
X-71464218Y-132928519D01*
X-71452383Y-132988019D01*
X-71450000Y-133012210D01*
X-71450000Y-139487789D01*
X-71452383Y-139511980D01*
X-71464218Y-139571480D01*
X-71482732Y-139616179D01*
X-71509518Y-139656268D01*
X-71543731Y-139690481D01*
X-71583820Y-139717267D01*
X-71628518Y-139735781D01*
X-71688019Y-139747617D01*
X-71712211Y-139750000D01*
X-71876000Y-139750000D01*
X-71943039Y-139730315D01*
X-71988794Y-139677511D01*
X-72000000Y-139626000D01*
X-72000000Y-139500000D01*
X-87176000Y-139500000D01*
X-87243039Y-139480315D01*
X-87288794Y-139427511D01*
X-87300000Y-139376000D01*
X-87300000Y-133124000D01*
X-87280315Y-133056961D01*
X-87227511Y-133011206D01*
X-87176000Y-133000000D01*
X-72000000Y-133000000D01*
X-72000000Y-132874000D01*
X-71980315Y-132806961D01*
X-71927511Y-132761206D01*
X-71876000Y-132750000D01*
X-71712211Y-132750000D01*
X-71688021Y-132752382D01*
G37*
G36*
X943039Y-98019685D02*
G01*
X988794Y-98072489D01*
X1000000Y-98124000D01*
X1000000Y-199876000D01*
X980315Y-199943039D01*
X927511Y-199988794D01*
X876000Y-200000000D01*
X-39876000Y-200000000D01*
X-39943039Y-199980315D01*
X-39988794Y-199927511D01*
X-40000000Y-199876000D01*
X-40000000Y-182124000D01*
X-39980315Y-182056961D01*
X-39927511Y-182011206D01*
X-39876000Y-182000000D01*
X-22000000Y-182000000D01*
X-22000000Y-98124000D01*
X-21980315Y-98056961D01*
X-21927511Y-98011206D01*
X-21876000Y-98000000D01*
X876000Y-98000000D01*
X943039Y-98019685D01*
G37*
G36*
X-93056961Y-98019685D02*
G01*
X-93011206Y-98072489D01*
X-93000000Y-98124000D01*
X-93000000Y-182000000D01*
X-75124000Y-182000000D01*
X-75056961Y-182019685D01*
X-75011206Y-182072489D01*
X-75000000Y-182124000D01*
X-75000000Y-199876000D01*
X-75019685Y-199943039D01*
X-75072489Y-199988794D01*
X-75124000Y-200000000D01*
X-115876000Y-200000000D01*
X-115943039Y-199980315D01*
X-115988794Y-199927511D01*
X-116000000Y-199876000D01*
X-116000000Y-98124000D01*
X-115980315Y-98056961D01*
X-115927511Y-98011206D01*
X-115876000Y-98000000D01*
X-93124000Y-98000000D01*
X-93056961Y-98019685D01*
G37*
G36*
X-71688021Y-104252382D02*
G01*
X-71628520Y-104264217D01*
X-71583820Y-104282732D01*
X-71543731Y-104309518D01*
X-71509518Y-104343731D01*
X-71482732Y-104383820D01*
X-71464218Y-104428519D01*
X-71452383Y-104488019D01*
X-71450000Y-104512210D01*
X-71450000Y-110987789D01*
X-71452383Y-111011980D01*
X-71464218Y-111071480D01*
X-71482732Y-111116179D01*
X-71509518Y-111156268D01*
X-71543731Y-111190481D01*
X-71583820Y-111217267D01*
X-71628518Y-111235781D01*
X-71688019Y-111247617D01*
X-71712211Y-111250000D01*
X-71876000Y-111250000D01*
X-71943039Y-111230315D01*
X-71988794Y-111177511D01*
X-72000000Y-111126000D01*
X-72000000Y-111000000D01*
X-87676000Y-111000000D01*
X-87743039Y-110980315D01*
X-87788794Y-110927511D01*
X-87800000Y-110876000D01*
X-87800000Y-104624000D01*
X-87780315Y-104556961D01*
X-87727511Y-104511206D01*
X-87676000Y-104500000D01*
X-72000000Y-104500000D01*
X-72000000Y-104374000D01*
X-71980315Y-104306961D01*
X-71927511Y-104261206D01*
X-71876000Y-104250000D01*
X-71712211Y-104250000D01*
X-71688021Y-104252382D01*
G37*
G36*
X-27356961Y-133019685D02*
G01*
X-27311206Y-133072489D01*
X-27300000Y-133124000D01*
X-27300000Y-139376000D01*
X-27319685Y-139443039D01*
X-27372489Y-139488794D01*
X-27424000Y-139500000D01*
X-42776000Y-139500000D01*
X-42843039Y-139480315D01*
X-42888794Y-139427511D01*
X-42900000Y-139376000D01*
X-42900000Y-133124000D01*
X-42880315Y-133056961D01*
X-42827511Y-133011206D01*
X-42776000Y-133000000D01*
X-27424000Y-133000000D01*
X-27356961Y-133019685D01*
G37*
G36*
X-43056961Y-98019685D02*
G01*
X-43011206Y-98072489D01*
X-43000000Y-98124000D01*
X-43000000Y-199876000D01*
X-43019685Y-199943039D01*
X-43072489Y-199988794D01*
X-43124000Y-200000000D01*
X-71876000Y-200000000D01*
X-71943039Y-199980315D01*
X-71988794Y-199927511D01*
X-72000000Y-199876000D01*
X-72000000Y-139500000D01*
X-72126000Y-139500000D01*
X-72193039Y-139480315D01*
X-72238794Y-139427511D01*
X-72250000Y-139376000D01*
X-72250000Y-133124000D01*
X-72230315Y-133056961D01*
X-72177511Y-133011206D01*
X-72126000Y-133000000D01*
X-72000000Y-133000000D01*
X-72000000Y-111000000D01*
X-72126000Y-111000000D01*
X-72193039Y-110980315D01*
X-72238794Y-110927511D01*
X-72250000Y-110876000D01*
X-72250000Y-104624000D01*
X-72230315Y-104556961D01*
X-72177511Y-104511206D01*
X-72126000Y-104500000D01*
X-72000000Y-104500000D01*
X-72000000Y-98124000D01*
X-71980315Y-98056961D01*
X-71927511Y-98011206D01*
X-71876000Y-98000000D01*
X-43124000Y-98000000D01*
X-43056961Y-98019685D01*
G37*
G36*
X-27356961Y-104519685D02*
G01*
X-27311206Y-104572489D01*
X-27300000Y-104624000D01*
X-27300000Y-110876000D01*
X-27319685Y-110943039D01*
X-27372489Y-110988794D01*
X-27424000Y-111000000D01*
X-42776000Y-111000000D01*
X-42843039Y-110980315D01*
X-42888794Y-110927511D01*
X-42900000Y-110876000D01*
X-42900000Y-104624000D01*
X-42880315Y-104556961D01*
X-42827511Y-104511206D01*
X-42776000Y-104500000D01*
X-27424000Y-104500000D01*
X-27356961Y-104519685D01*
G37*
M02*
