M48
; DRILL file {KiCad 9.0.5} date 2025-12-19T11:09:59+0100
; FORMAT={-:-/ absolute / metric / decimal}
; #@! TF.CreationDate,2025-12-19T11:09:59+01:00
; #@! TF.GenerationSoftware,Kicad,Pcbnew,9.0.5
; #@! TF.FileFunction,Plated,1,4,PTH
FMAT,2
METRIC
; #@! TA.AperFunction,Plated,PTH,ViaDrill
T1C0.300
; #@! TA.AperFunction,Plated,PTH,ComponentDrill
T2C0.600
; #@! TA.AperFunction,Plated,PTH,ViaDrill
T3C0.800
; #@! TA.AperFunction,Plated,PTH,ComponentDrill
T4C1.020
; #@! TA.AperFunction,Plated,PTH,ViaDrill
T5C1.500
; #@! TA.AperFunction,Plated,PTH,ComponentDrill
T6C1.600
; #@! TA.AperFunction,Plated,PTH,ComponentDrill
T7C1.850
%
G90
G05
T1
X-94.282Y-51.225
X-93.932Y-40.3
X-91.792Y-51.225
X-89.987Y-44.7
X-89.138Y-44.7
X-89.013Y-53.9
X-88.05Y-129.837
X-88.013Y-53.9
X-87.848Y-124.964
X-87.808Y-96.244
X-87.614Y-123.031
X-87.574Y-94.311
X-87.098Y-100.79
X-87.013Y-53.9
X-86.567Y-120.733
X-86.457Y-91.943
X-86.308Y-89.494
X-86.248Y-125.814
X-86.235Y-97.035
X-86.013Y-53.9
X-85.778Y-117.439
X-85.326Y-95.264
X-85.292Y-40.4
X-85.246Y-124.05
X-85.111Y-121.7
X-85.071Y-93.0
X-84.5Y-93.969
X-84.5Y-122.689
X-84.5Y-129.5
X-84.3Y-100.7
X-84.2Y-92.244
X-84.2Y-120.964
X-84.086Y-119.877
X-84.046Y-91.157
X-83.648Y-125.114
X-83.608Y-96.394
X-83.448Y-130.314
X-83.408Y-101.594
X-82.608Y-94.419
X-82.6Y-123.2
X-82.308Y-121.394
X-82.01Y-127.329
X-82.008Y-93.801
X-81.565Y-92.085
X-81.408Y-121.089
X-81.208Y-93.794
X-81.158Y-95.782
X-81.158Y-98.369
X-80.366Y-121.071
X-78.923Y-123.314
X-78.923Y-124.914
X-78.883Y-94.594
X-78.658Y-96.194
X-76.96Y-88.369
X-76.812Y-49.3
X-76.8Y-90.35
X-76.712Y-58.3
X-75.1Y-61.9
X-75.0Y-91.1
X-74.953Y-89.572
X-74.712Y-40.4
X-74.7Y-93.969
X-74.7Y-122.689
X-74.312Y-49.4
X-74.212Y-58.5
X-73.948Y-124.994
X-73.928Y-89.536
X-73.908Y-98.394
X-73.212Y-36.4
X-72.712Y-41.1
X-71.962Y-48.856
X-71.912Y-58.4
X-71.812Y-53.0
X-70.912Y-41.2
X-69.912Y-45.5
X-69.763Y-49.4
X-69.612Y-58.4
X-69.312Y-52.9
X-68.612Y-39.8
X-68.561Y-61.349
X-68.3Y-49.1
X-67.912Y-38.6
X-67.83Y-54.48
X-67.5Y-55.6
X-67.312Y-44.6
X-67.154Y-59.733
X-66.992Y-45.731
X-66.513Y-43.5
X-66.412Y-34.6
X-66.383Y-46.325
X-66.073Y-44.264
X-65.5Y-60.2
X-65.413Y-88.557
X-65.4Y-94.9
X-65.3Y-91.3
X-65.241Y-44.25
X-64.605Y-59.55
X-64.546Y-62.236
X-64.5Y-91.25
X-64.5Y-88.5
X-64.403Y-44.111
X-63.5Y-46.2
X-63.5Y-50.0
X-62.858Y-51.692
X-61.924Y-42.175
X-61.924Y-43.025
X-61.412Y-55.5
X-61.412Y-60.8
X-60.975Y-47.947
X-60.44Y-61.375
X-60.4Y-52.6
X-60.262Y-46.9
X-59.55Y-61.44
X-59.1Y-53.4
X-59.1Y-93.2
X-59.054Y-96.543
X-58.76Y-95.622
X-58.5Y-88.0
X-58.312Y-56.35
X-58.112Y-88.821
X-58.0Y-93.2
X-57.375Y-87.65
X-57.151Y-93.2
X-56.67Y-95.63
X-56.4Y-97.33
X-56.246Y-96.543
X-56.2Y-93.2
X-56.032Y-88.024
X-54.577Y-44.65
X-53.912Y-55.712
X-51.75Y-52.3
X-51.112Y-41.07
X-50.6Y-94.9
X-50.3Y-74.3
X-49.9Y-95.6
X-49.8Y-88.6
X-49.2Y-52.212
X-48.7Y-76.4
X-48.6Y-61.5
X-47.312Y-39.8
X-47.212Y-42.4
X-45.312Y-43.1
X-43.413Y-41.8
X-42.637Y-42.125
X-41.208Y-118.894
X-41.112Y-38.0
X-41.083Y-147.994
X-40.5Y-121.369
X-40.4Y-150.319
X-38.675Y-46.3
X-37.975Y-46.3
X-37.275Y-46.3
X-37.002Y-119.273
X-36.575Y-46.3
X-36.368Y-120.879
X-36.108Y-148.094
X-36.108Y-149.694
X-34.902Y-119.375
X-34.869Y-122.306
X-34.602Y-150.366
X-34.25Y-123.206
X-33.8Y-150.2
X-33.771Y-146.037
X-33.721Y-148.507
X-33.108Y-122.794
X-33.05Y-116.644
X-33.021Y-119.7
X-33.008Y-150.594
X-32.312Y-45.2
X-32.202Y-150.778
X-31.708Y-113.744
X-31.675Y-47.4
X-31.65Y-118.944
X-31.583Y-142.694
X-31.383Y-147.894
X-31.183Y-124.184
X-30.975Y-47.4
X-30.946Y-153.132
X-30.9Y-123.094
X-30.9Y-152.044
X-30.8Y-121.369
X-30.8Y-143.6
X-30.751Y-114.608
X-30.661Y-150.481
X-30.275Y-47.4
X-30.246Y-119.9
X-30.046Y-122.3
X-29.921Y-151.3
X-29.821Y-149.2
X-29.575Y-47.4
X-29.3Y-120.3
X-28.9Y-148.9
X-28.551Y-154.667
X-28.55Y-117.983
X-28.513Y-144.106
X-28.451Y-114.924
X-28.358Y-123.094
X-28.35Y-55.1
X-28.233Y-152.044
X-28.15Y-126.815
X-27.534Y-149.86
X-27.308Y-119.094
X-27.183Y-148.044
X-25.1Y-89.9
T3
X-68.208Y-110.894
X-68.208Y-139.594
X-68.108Y-104.394
X-68.108Y-106.494
X-68.108Y-108.694
X-68.108Y-133.094
X-68.108Y-135.194
X-68.108Y-137.394
X-66.808Y-104.394
X-66.808Y-106.494
X-66.808Y-108.694
X-66.808Y-110.894
X-66.808Y-133.094
X-66.808Y-135.194
X-66.808Y-137.394
X-66.808Y-139.594
X-65.508Y-104.394
X-65.508Y-106.494
X-65.508Y-108.694
X-65.508Y-110.894
X-65.508Y-133.094
X-65.508Y-135.194
X-65.508Y-137.394
X-65.508Y-139.594
X-64.308Y-103.494
X-64.308Y-132.194
X-64.208Y-111.894
X-64.208Y-140.594
X-64.008Y-106.494
X-64.008Y-108.694
X-64.008Y-135.194
X-64.008Y-137.394
X-62.808Y-103.494
X-62.808Y-104.994
X-62.808Y-132.194
X-62.808Y-133.694
X-62.708Y-107.694
X-62.708Y-110.194
X-62.708Y-111.894
X-62.708Y-136.394
X-62.708Y-138.894
X-62.708Y-140.594
X-51.908Y-103.394
X-51.908Y-105.094
X-51.908Y-107.594
X-51.908Y-132.094
X-51.908Y-133.794
X-51.908Y-136.294
X-51.808Y-110.294
X-51.808Y-111.794
X-51.808Y-138.994
X-51.808Y-140.494
X-50.608Y-106.594
X-50.608Y-108.794
X-50.608Y-135.294
X-50.608Y-137.494
X-50.408Y-103.394
X-50.408Y-132.094
X-50.308Y-111.794
X-50.308Y-140.494
X-49.108Y-104.394
X-49.108Y-106.594
X-49.108Y-108.794
X-49.108Y-110.894
X-49.108Y-133.094
X-49.108Y-135.294
X-49.108Y-137.494
X-49.108Y-139.594
X-47.808Y-104.394
X-47.808Y-106.594
X-47.808Y-108.794
X-47.808Y-110.894
X-47.808Y-133.094
X-47.808Y-135.294
X-47.808Y-137.494
X-47.808Y-139.594
X-46.508Y-106.594
X-46.508Y-108.794
X-46.508Y-110.894
X-46.508Y-135.294
X-46.508Y-137.494
X-46.508Y-139.594
X-46.408Y-104.394
X-46.408Y-133.094
T4
X-37.512Y-36.48
X-37.512Y-39.02
X-37.512Y-41.56
X-37.512Y-44.1
T5
X-115.0Y-100.0
X-115.0Y-105.0
X-115.0Y-110.0
X-115.0Y-115.0
X-115.0Y-120.0
X-115.0Y-125.0
X-115.0Y-130.0
X-115.0Y-135.0
X-115.0Y-140.0
X-115.0Y-145.0
X-115.0Y-150.0
X-115.0Y-155.0
X-115.0Y-160.0
X-115.0Y-165.0
X-115.0Y-170.0
X-115.0Y-175.0
X-115.0Y-180.0
X-115.0Y-185.0
X-115.0Y-190.0
X-115.0Y-195.0
X-110.0Y-100.0
X-105.0Y-100.0
X-100.0Y-100.0
X-97.0Y-103.0
X-97.0Y-106.0
X-97.0Y-109.0
X-97.0Y-112.0
X-97.0Y-132.0
X-97.0Y-135.0
X-97.0Y-138.0
X-97.0Y-141.0
X-95.0Y-100.0
X-94.0Y-103.0
X-94.0Y-112.0
X-94.0Y-132.0
X-94.0Y-141.0
X-84.01Y-105.25
X-84.01Y-107.75
X-84.01Y-110.25
X-83.5Y-133.85
X-83.5Y-136.35
X-83.5Y-138.85
X-72.76Y-105.25
X-72.76Y-107.75
X-72.76Y-110.25
X-72.76Y-133.85
X-72.76Y-136.35
X-72.76Y-138.85
X-70.0Y-100.0
X-70.0Y-115.0
X-70.0Y-129.0
X-70.0Y-144.0
X-65.0Y-100.0
X-65.0Y-115.0
X-65.0Y-129.0
X-65.0Y-144.0
X-60.0Y-105.0
X-60.0Y-110.0
X-60.0Y-115.0
X-60.0Y-129.0
X-60.0Y-134.0
X-60.0Y-139.0
X-60.0Y-144.0
X-55.0Y-105.0
X-55.0Y-110.0
X-55.0Y-115.0
X-55.0Y-129.0
X-55.0Y-134.0
X-55.0Y-139.0
X-55.0Y-144.0
X-50.0Y-100.0
X-50.0Y-115.0
X-50.0Y-129.0
X-50.0Y-144.0
X-45.0Y-100.0
X-45.0Y-115.0
X-45.0Y-129.0
X-45.0Y-144.0
X-41.89Y-105.2
X-41.89Y-107.7
X-41.89Y-110.2
X-41.88Y-133.85
X-41.88Y-136.35
X-41.88Y-138.85
X-31.5Y-105.2
X-31.5Y-107.7
X-31.5Y-110.2
X-31.5Y-133.8
X-31.5Y-136.3
X-31.5Y-138.8
X-21.0Y-103.0
X-21.0Y-112.0
X-21.0Y-132.0
X-21.0Y-141.0
X-20.282Y-99.991
X-18.0Y-103.0
X-18.0Y-106.0
X-18.0Y-109.0
X-18.0Y-112.0
X-18.0Y-132.0
X-18.0Y-135.0
X-18.0Y-138.0
X-18.0Y-141.0
X-15.0Y-100.0
X-10.0Y-100.0
X-5.0Y-100.0
X0.0Y-100.0
X0.0Y-105.0
X0.0Y-110.0
X0.0Y-115.0
X0.0Y-120.0
X0.0Y-125.0
X0.0Y-130.0
X0.0Y-135.0
X0.0Y-140.0
X0.0Y-145.0
X0.0Y-150.0
X0.0Y-155.0
X0.0Y-160.0
X0.0Y-165.0
X0.0Y-170.0
X0.0Y-175.0
X0.0Y-180.0
X0.0Y-185.0
X0.0Y-190.0
X0.0Y-195.0
T6
X-26.212Y-42.8
X-21.512Y-39.8
X-21.512Y-45.8
T7
X-91.47Y-188.0
X-91.47Y-192.435
X-91.47Y-196.87
X-87.035Y-188.0
X-87.035Y-192.435
X-87.035Y-196.87
X-82.6Y-188.0
X-82.6Y-192.435
X-82.6Y-196.87
X-70.47Y-188.0
X-70.47Y-192.435
X-70.47Y-196.87
X-66.035Y-188.0
X-66.035Y-192.435
X-66.035Y-196.87
X-61.6Y-188.0
X-61.6Y-192.435
X-61.6Y-196.87
X-53.435Y-188.0
X-53.435Y-192.435
X-53.435Y-196.87
X-49.0Y-188.0
X-49.0Y-192.435
X-49.0Y-196.87
X-44.565Y-188.0
X-44.565Y-192.435
X-44.565Y-196.87
X-32.435Y-188.0
X-32.435Y-192.435
X-32.435Y-196.87
X-28.0Y-188.0
X-28.0Y-192.435
X-28.0Y-196.87
X-23.565Y-188.0
X-23.565Y-192.435
X-23.565Y-196.87
T2
X-93.932Y-34.935G85X-93.932Y-34.135
G05
X-93.932Y-39.265G85X-93.932Y-38.165
G05
X-85.292Y-34.935G85X-85.292Y-34.135
G05
X-85.292Y-39.265G85X-85.292Y-38.165
G05
M30
